# xmcd
#
# Track frame offsets:
#	150
#	17985
#	47050
#	70485
#	107425
#	145845
#
# Disc length: 2740 seconds
#
# Revision: 0
# Processed by: cddbd v1.5.1PL2 Copyright (c) Steve Scherf et al.
# Submitted via: EasyCDDAExtractor 9.0.0.1
#
DISCID=500ab206
DTITLE=Deep Purple - Kurpark Bad Bruckenau 16-06-06 Disc 2
DYEAR=2006
DGENRE=Hard Rock
TTITLE0=Don's Solo
TTITLE1=Perfect Strangers
TTITLE2=Space Truckin'
TTITLE3=Highway Star
TTITLE4=Smoke On The Water
TTITLE5=Black Night
EXTD=
EXTT0=
EXTT1=
EXTT2=
EXTT3=
EXTT4=
EXTT5=
PLAYORDER=
